<svg xmlns="http://www.w3.org/2000/svg" width="717.99" height="130.58" viewBox="0 0 780.99 140.58">
  <g id="logo" transform="translate(-139.12 -141.91)">
    <path id="Path_1" data-name="Path 1" d="M805.18,255.18a3.21,3.21,0,0,0,3.08,3.11h19.48a3.2,3.2,0,0,0,3.08-3.11V167.74h23.21a3.087,3.087,0,0,0,3.08-3.11V146.77a3.087,3.087,0,0,0-3.08-3.11H781.96a3.087,3.087,0,0,0-3.08,3.11v17.86a3.093,3.093,0,0,0,3.08,3.11h23.21v87.44ZM139.12,201.15a58.52,58.52,0,0,0,58.65,58.92,55.451,55.451,0,0,0,39.44-15.88,3.3,3.3,0,0,0,.17-4.42l-12.66-13.62a3.185,3.185,0,0,0-4.22-.17,34.029,34.029,0,0,1-21.75,7.89c-18.35,0-31.98-15.12-31.98-33.37,0-18.42,13.47-33.87,31.81-33.87a32.934,32.934,0,0,1,21.92,8.39,2.82,2.82,0,0,0,4.06,0l12.65-13.3a3.055,3.055,0,0,0-.16-4.58c-11.04-10.15-23.05-15.22-39.29-15.22-32.46-.01-58.64,26.35-58.64,59.23Zm108.6,0h0c0,32.88,25.8,58.92,58.3,58.92s58.47-26.03,58.47-58.92-25.95-59.24-58.47-59.24-58.3,26.35-58.3,59.24Zm25.95,0c0-18.09,14.63-33.05,32.35-33.05,17.88,0,32.51,14.96,32.51,33.05a32.761,32.761,0,0,1-32.51,32.72c-17.72,0-32.35-14.8-32.35-32.72ZM384.4,255.21h0a3.062,3.062,0,0,0,2.92,3.1h39.56c31.21,0,56.75-25.56,56.75-57.41,0-31.51-25.54-57.24-56.75-57.24H387.32a3.065,3.065,0,0,0-2.92,3.11V255.21Zm25.33-20.99V167.74h15.52c18.28,0,31.54,14.61,31.54,33.16,0,18.71-13.26,33.32-31.54,33.32Zm94.09,20.96a3.21,3.21,0,0,0,3.08,3.11h19.48a3.2,3.2,0,0,0,3.08-3.11V146.8a3.2,3.2,0,0,0-3.08-3.11H506.9a3.2,3.2,0,0,0-3.08,3.11V255.18Zm82.7-111.51c.86-.13,1.77-.25,2.7-.37h0c.62-.08,1.64-.19,2.71-.31a1.431,1.431,0,0,1,.29-.01c.5-.02,1.12-.05,1.73-.08,1.17-.06,2.32-.12,3.29-.12.87,0,1.95.05,3.11.11.71.04,1.45.07,2.08.09.06,0,.11.01.17.01h0l.56.06c1.74.19,3.49.38,5.18.62a2.277,2.277,0,0,1,1.82,1.47l43.09,110.07a2.281,2.281,0,0,1-1.3,2.96,2.62,2.62,0,0,1-.66.15c-.99.13-1.99.25-2.98.35-1.09.11-2.13.2-3.11.26h-.06c-.92.06-1.88.11-2.84.14q-1.62.06-2.64.06c-.81,0-1.77-.02-2.92-.06-1.06-.04-2.06-.09-3.02-.15-2.26-.15-5.27-.33-7.42-.7a2.3,2.3,0,0,1-1.83-1.67l-26.93-78.44L570.1,256.74a2.3,2.3,0,0,1-1.8,1.54h0c-.85.14-1.78.26-2.8.37s-2.1.19-3.22.26q-1.575.09-3.21.15c-1.21.04-2.21.06-2.98.06q-1.125,0-2.88-.06c-1.06-.03-2.1-.08-3.11-.15-1.05-.07-2.13-.15-3.24-.26-1.09-.11-2.16-.23-3.18-.36a2.286,2.286,0,0,1-1.97-2.56,2.745,2.745,0,0,1,.15-.58l42.88-110.06a2.311,2.311,0,0,1,1.78-1.42Zm78.36,111.51a3.219,3.219,0,0,0,3.09,3.11h19.32a3.093,3.093,0,0,0,3.08-3.11V194.11h.17l64.17,65a3.74,3.74,0,0,0,2.11.95h2.59a3.071,3.071,0,0,0,3.08-2.96V146.8a3.2,3.2,0,0,0-3.08-3.11H739.93a3.093,3.093,0,0,0-3.08,3.11v58.19h-.16l-64.82-63.07h-4.06a3.063,3.063,0,0,0-3.08,2.95Z" fill="#fff" fill-rule="evenodd"/>
    <path id="Path_2" data-name="Path 2" d="M585.55,248.45a11.83,11.83,0,1,1,11.83,11.83A11.835,11.835,0,0,1,585.55,248.45Z" fill="#40c9dc" fill-rule="evenodd"/>
    <g id="Group_1" data-name="Group 1">
      <path id="Path_3" data-name="Path 3" d="M159.32,313.12l11.7-25.32a.663.663,0,0,1,.64-.41h.38a.639.639,0,0,1,.64.41l11.59,25.32a.666.666,0,0,1-.64.98h-3.27a1.087,1.087,0,0,1-1.09-.75l-1.84-4.06H166.18l-1.84,4.06a1.127,1.127,0,0,1-1.09.75h-3.27A.672.672,0,0,1,159.32,313.12Zm16.26-8.01-3.76-8.28h-.11l-3.69,8.28Z" fill="wheat"/>
      <path id="Path_4" data-name="Path 4" d="M207.07,301.42l-8.58-12.57a.7.7,0,0,1,.6-1.09h3.84a.743.743,0,0,1,.6.34l6.02,8.65,6.02-8.65a.743.743,0,0,1,.6-.34h3.88a.7.7,0,0,1,.6,1.09l-8.69,12.53v12a.733.733,0,0,1-.71.71h-3.46a.713.713,0,0,1-.71-.71V301.42Z" fill="wheat"/>
      <path id="Path_5" data-name="Path 5" d="M221.48,313.12l11.7-25.32a.663.663,0,0,1,.64-.41h.38a.639.639,0,0,1,.64.41l11.59,25.32a.666.666,0,0,1-.64.98h-3.27a1.087,1.087,0,0,1-1.09-.75l-1.84-4.06H228.34l-1.84,4.06a1.127,1.127,0,0,1-1.09.75h-3.27A.666.666,0,0,1,221.48,313.12Zm16.25-8.01-3.76-8.28h-.11l-3.69,8.28Z" fill="wheat"/>
      <path id="Path_6" data-name="Path 6" d="M251.31,310.41l1.35-2.33a.864.864,0,0,1,1.28-.26c.19.11,3.24,2.33,5.68,2.33a3.136,3.136,0,0,0,3.42-2.9c0-1.92-1.62-3.24-4.78-4.51-3.54-1.43-7.07-3.69-7.07-8.13,0-3.35,2.48-7.22,8.47-7.22a13.32,13.32,0,0,1,7.53,2.52.932.932,0,0,1,.23,1.24l-1.43,2.14a1,1,0,0,1-1.32.45c-.3-.19-3.16-2.07-5.23-2.07-2.15,0-3.31,1.43-3.31,2.63,0,1.77,1.39,2.97,4.44,4.21,3.65,1.47,7.86,3.65,7.86,8.5,0,3.88-3.35,7.45-8.65,7.45a12.138,12.138,0,0,1-8.28-2.93C251.16,311.2,250.97,311.01,251.31,310.41Z" fill="wheat"/>
      <path id="Path_7" data-name="Path 7" d="M276.26,288.47a.733.733,0,0,1,.71-.71h3.5a.713.713,0,0,1,.71.71v9.97h12.27v-9.97a.706.706,0,0,1,.71-.71h3.46a.733.733,0,0,1,.71.71v24.91a.733.733,0,0,1-.71.71h-3.46a.713.713,0,0,1-.71-.71V303H281.18v10.39a.706.706,0,0,1-.71.71h-3.5a.733.733,0,0,1-.71-.71Z" fill="wheat"/>
      <path id="Path_8" data-name="Path 8" d="M323.06,292.28H317.3a.713.713,0,0,1-.71-.71v-3.09a.706.706,0,0,1,.71-.71h16.44a.721.721,0,0,1,.72.71v3.09a.709.709,0,0,1-.72.71h-5.76v21.11a.733.733,0,0,1-.71.71h-3.5a.733.733,0,0,1-.71-.71Z" fill="wheat"/>
      <path id="Path_9" data-name="Path 9" d="M341.38,288.47a.706.706,0,0,1,.71-.71H357.4a.721.721,0,0,1,.72.71v3.09a.709.709,0,0,1-.72.71H346.26v6.17h9.29a.733.733,0,0,1,.71.71v3.12a.713.713,0,0,1-.71.71h-9.29v6.58H357.4a.721.721,0,0,1,.72.71v3.09a.709.709,0,0,1-.72.71H342.1a.713.713,0,0,1-.71-.71V288.47Z" fill="wheat"/>
      <path id="Path_10" data-name="Path 10" d="M378.07,287.38a12.728,12.728,0,0,1,9.11,3.5.7.7,0,0,1,.04,1.05l-2.3,2.37a.6.6,0,0,1-.94,0,8.915,8.915,0,0,0-5.79-2.22,8.736,8.736,0,0,0,.04,17.46,9.033,9.033,0,0,0,5.76-2.15.692.692,0,0,1,.94,0l2.33,2.41a.717.717,0,0,1-.04,1.02,12.921,12.921,0,0,1-9.14,3.65,13.545,13.545,0,1,1-.01-27.09Z" fill="wheat"/>
      <path id="Path_11" data-name="Path 11" d="M395.15,288.47a.733.733,0,0,1,.71-.71h3.5a.713.713,0,0,1,.71.71v9.97h12.27v-9.97a.706.706,0,0,1,.71-.71h3.46a.733.733,0,0,1,.71.71v24.91a.733.733,0,0,1-.71.71h-3.46a.713.713,0,0,1-.71-.71V303H400.07v10.39a.706.706,0,0,1-.71.71h-3.5a.733.733,0,0,1-.71-.71Z" fill="wheat"/>
      <path id="Path_12" data-name="Path 12" d="M427.09,288.06a.707.707,0,0,1,.71-.68h.94l15.65,16.63h.04V288.47a.706.706,0,0,1,.71-.71h3.46a.742.742,0,0,1,.72.71v25.32a.709.709,0,0,1-.72.68h-.9L431.97,297.2h-.04v16.18a.706.706,0,0,1-.71.71H427.8a.733.733,0,0,1-.71-.71V288.06Z" fill="wheat"/>
      <path id="Path_13" data-name="Path 13" d="M470.81,287.38a13.545,13.545,0,1,1-13.51,13.58A13.523,13.523,0,0,1,470.81,287.38Zm0,22.2a8.655,8.655,0,1,0-8.62-8.62A8.672,8.672,0,0,0,470.81,309.58Z" fill="wheat"/>
      <path id="Path_14" data-name="Path 14" d="M492.29,288.47a.706.706,0,0,1,.71-.71h3.46a.733.733,0,0,1,.71.71v21.11h9.6a.713.713,0,0,1,.71.71v3.09a.706.706,0,0,1-.71.71H493a.713.713,0,0,1-.71-.71Z" fill="wheat"/>
      <path id="Path_15" data-name="Path 15" d="M525.67,287.38a13.545,13.545,0,1,1-13.51,13.58A13.523,13.523,0,0,1,525.67,287.38Zm0,22.2a8.655,8.655,0,1,0-8.62-8.62A8.672,8.672,0,0,0,525.67,309.58Z" fill="wheat"/>
      <path id="Path_16" data-name="Path 16" d="M558.78,287.38a14.23,14.23,0,0,1,9.18,3.5.726.726,0,0,1,.04,1.05l-2.33,2.45a.646.646,0,0,1-.98,0,8.525,8.525,0,0,0-5.68-2.18,8.678,8.678,0,0,0,.04,17.35,11.782,11.782,0,0,0,4.48-.94v-3.2h-3.01a.682.682,0,0,1-.71-.68v-2.97a.688.688,0,0,1,.71-.71h7.22a.707.707,0,0,1,.68.71v9.63a.718.718,0,0,1-.3.6,19.007,19.007,0,0,1-9.33,2.45,13.53,13.53,0,0,1-.01-27.06Z" fill="wheat"/>
      <path id="Path_17" data-name="Path 17" d="M576.95,288.47a.733.733,0,0,1,.71-.71h3.5a.733.733,0,0,1,.71.71v24.91a.733.733,0,0,1-.71.71h-3.5a.733.733,0,0,1-.71-.71Z" fill="wheat"/>
      <path id="Path_18" data-name="Path 18" d="M591.73,288.47a.706.706,0,0,1,.71-.71h15.31a.713.713,0,0,1,.71.71v3.09a.706.706,0,0,1-.71.71H596.61v6.17h9.29a.733.733,0,0,1,.71.71v3.12a.713.713,0,0,1-.71.71h-9.29v6.58h11.14a.713.713,0,0,1,.71.71v3.09a.706.706,0,0,1-.71.71H592.44a.713.713,0,0,1-.71-.71Z" fill="wheat"/>
      <path id="Path_19" data-name="Path 19" d="M615.32,310.41l1.35-2.33a.864.864,0,0,1,1.28-.26c.19.11,3.24,2.33,5.68,2.33a3.136,3.136,0,0,0,3.42-2.9c0-1.92-1.62-3.24-4.78-4.51-3.54-1.43-7.07-3.69-7.07-8.13,0-3.35,2.48-7.22,8.47-7.22a13.32,13.32,0,0,1,7.53,2.52.932.932,0,0,1,.23,1.24L630,293.29a1,1,0,0,1-1.32.45c-.3-.19-3.16-2.07-5.23-2.07-2.15,0-3.31,1.43-3.31,2.63,0,1.77,1.39,2.97,4.44,4.21,3.65,1.47,7.86,3.65,7.86,8.5,0,3.88-3.35,7.45-8.65,7.45a12.138,12.138,0,0,1-8.28-2.93C615.17,311.2,614.99,311.01,615.32,310.41Z" fill="wheat"/>
      <path id="Path_20" data-name="Path 20" d="M663.26,287.38a12.728,12.728,0,0,1,9.11,3.5.7.7,0,0,1,.04,1.05l-2.3,2.37a.6.6,0,0,1-.94,0,8.915,8.915,0,0,0-5.79-2.22,8.736,8.736,0,0,0,.04,17.46,9.033,9.033,0,0,0,5.76-2.15.692.692,0,0,1,.94,0l2.33,2.41a.717.717,0,0,1-.04,1.02,12.921,12.921,0,0,1-9.14,3.65,13.545,13.545,0,1,1-.01-27.09Z" fill="wheat"/>
      <path id="Path_21" data-name="Path 21" d="M691.85,287.38a13.545,13.545,0,1,1-13.51,13.58A13.523,13.523,0,0,1,691.85,287.38Zm0,22.2a8.655,8.655,0,1,0-8.62-8.62A8.672,8.672,0,0,0,691.85,309.58Z" fill="wheat"/>
      <path id="Path_22" data-name="Path 22" d="M716.08,287.95a.632.632,0,0,1,.68-.56h.6a.681.681,0,0,1,.64.38l8.28,17.76h.11l8.28-17.76a.642.642,0,0,1,.64-.38h.6a.639.639,0,0,1,.68.56l4.44,25.29a.658.658,0,0,1-.68.87h-3.42a.8.8,0,0,1-.71-.56L734,299.29h-.11l-6.58,14.79a.635.635,0,0,1-.64.41h-.68a.678.678,0,0,1-.64-.41l-6.66-14.79h-.11l-2.18,14.26a.733.733,0,0,1-.68.56h-3.39a.686.686,0,0,1-.71-.87Z" fill="wheat"/>
      <path id="Path_23" data-name="Path 23" d="M749.19,288.47a.706.706,0,0,1,.71-.71h8.84a8.4,8.4,0,1,1,.04,16.79h-4.7v8.84a.733.733,0,0,1-.71.71h-3.46a.713.713,0,0,1-.71-.71V288.47Zm9.26,11.48a3.877,3.877,0,0,0,3.88-3.91,3.756,3.756,0,0,0-3.88-3.65h-4.36v7.56Z" fill="wheat"/>
      <path id="Path_24" data-name="Path 24" d="M769.58,313.12l11.7-25.32a.663.663,0,0,1,.64-.41h.38a.639.639,0,0,1,.64.41l11.59,25.32a.666.666,0,0,1-.64.98h-3.27a1.087,1.087,0,0,1-1.09-.75l-1.84-4.06H776.44l-1.84,4.06a1.127,1.127,0,0,1-1.09.75h-3.27A.672.672,0,0,1,769.58,313.12Zm16.26-8.01-3.76-8.28h-.11l-3.69,8.28Z" fill="wheat"/>
      <path id="Path_25" data-name="Path 25" d="M800.96,288.06a.707.707,0,0,1,.71-.68h.94l15.65,16.63h.04V288.47a.706.706,0,0,1,.71-.71h3.46a.742.742,0,0,1,.72.71v25.32a.709.709,0,0,1-.72.68h-.9L805.84,297.2h-.04v16.18a.706.706,0,0,1-.71.71h-3.42a.733.733,0,0,1-.71-.71V288.06Z" fill="wheat"/>
      <path id="Path_26" data-name="Path 26" d="M838.1,301.42l-8.58-12.57a.7.7,0,0,1,.6-1.09h3.84a.743.743,0,0,1,.6.34l6.02,8.65,6.02-8.65a.743.743,0,0,1,.6-.34h3.88a.7.7,0,0,1,.6,1.09l-8.69,12.53v12a.733.733,0,0,1-.71.71h-3.46a.713.713,0,0,1-.71-.71V301.42Z" fill="wheat"/>
    </g>
  </g>
</svg>
